<svg id="图层_1" data-name="图层 1" xmlns="http://www.w3.org/2000/svg" viewBox="0 0 759.2 178.62"><defs><style>.cls-1{fill:#c72433;}</style></defs><title>002</title><path d="M210.94,92.25V92c0-21.22,16.14-39.2,39.1-39.2,13.1,0,21.33,3.68,29.13,10.29l-8.45,10.07c-5.85-5-11.7-8-21.23-8-13.86,0-24.58,12.13-24.58,26.64V92c0,15.6,10.29,27.08,25.78,27.08a30.75,30.75,0,0,0,18.3-5.74V99.29H249.6V87.59h32.28v31.84a48.6,48.6,0,0,1-31.63,11.81C226.54,131.24,210.94,114.34,210.94,92.25Z" transform="translate(-3.25 -8.46)"/><path d="M299.2,54.13h56.2V66H312.52V85.75h38v12h-38V118h43.42v11.92H299.2Z" transform="translate(-3.25 -8.46)"/><path d="M368.39,92.25V92c0-21.22,16.46-39.2,39.75-39.2s39.52,17.65,39.52,39V92c0,21.23-16.46,39.21-39.74,39.21S368.39,113.58,368.39,92.25Zm65.3,0V92c0-14.72-10.61-26.85-25.77-26.85s-25.56,11.91-25.56,26.64V92c0,14.73,10.62,26.86,25.78,26.86S433.69,107,433.69,92.25Z" transform="translate(-3.25 -8.46)"/><path d="M463.79,54.13h28.27c23.82,0,40.28,16.35,40.28,37.69V92c0,21.34-16.46,37.91-40.28,37.91H463.79Zm13.32,12.13v51.55h14.95c15.92,0,26.31-10.72,26.31-25.56V92c0-14.83-10.39-25.77-26.31-25.77Z" transform="translate(-3.25 -8.46)"/><path d="M548.47,54.13h12.35l40.61,52.42V54.13h13.1v75.81H603.38L561.58,76v53.93H548.47Z" transform="translate(-3.25 -8.46)"/><path d="M634,54.13h56.21V66H647.34V85.75h38v12h-38V118h43.43v11.92H634Z" transform="translate(-3.25 -8.46)"/><path d="M725,66.48H700.83V54.13h61.62V66.48H738.3v63.46H725Z" transform="translate(-3.25 -8.46)"/><path class="cls-1" d="M125.06,149.93c-.18-2.43-.06-4.88-.06-7.47-26.08,19-55.61,11.69-70.31-2.74C31,116.42,30.16,90.42,47.21,63.11c-2.55,0-5.32.13-8.07-.07a5.77,5.77,0,0,1-3.4-1.36c-4.47-4.3-8.82-8.73-13.15-13.17a29.59,29.59,0,0,1-2.4-3.26C-4.69,78.62-4.73,135.07,37.47,168.37c36.11,28.5,81.79,20.82,105.88,1-5.73-5.5-11.44-10.93-17-16.46A5.07,5.07,0,0,1,125.06,149.93Z" transform="translate(-3.25 -8.46)"/><path class="cls-1" d="M147.16,28.53c-34.77-29-81.4-23.4-106.82-3.24,5.44,5.2,10.85,10.29,16.14,15.52A5.32,5.32,0,0,1,57.74,44c.17,2.9.06,5.83.06,8.81,24.44-15.32,48-15,70.65,3.59,22,22.6,23.56,47.44,8.23,74.27,2.41,0,4.88-.11,7.34,0a4.89,4.89,0,0,1,2.84,1.12c2.46,2.28,4.75,4.74,7.11,7.12l9.68,9.76C187.7,115.09,186.34,61.25,147.16,28.53Z" transform="translate(-3.25 -8.46)"/><path class="cls-1" d="M91.3,147.49A49.61,49.61,0,1,0,42,97.76,49.35,49.35,0,0,0,91.3,147.49Zm19.51-49.67c4.61.9,9.26,1.7,13.93,2.17,3.47.34,3.72.35,5.17,3.58a36.89,36.89,0,0,0,3.18,4.77c-2.77,14.85-16.71,28.41-30.37,31.23-.47-8,.54-15.45,5.88-22a30,30,0,0,0,4.53-9.09c.93-2.69-.54-4.43-3.38-4.9-1.74-.29-3.12-.76-2.91-3C107.1,97.94,108.23,97.31,110.81,97.82ZM58.68,69.26c13.82-15.92,35.55-18.5,50.68-10.73-1.34,2.29-2.89,2.68-4.63.9a3.89,3.89,0,0,0-4.22-1A20.26,20.26,0,0,0,91,64.41a2.65,2.65,0,0,0-.67,2.22c.28.57,1.4.72,2.15,1,.07,0,.15,0,.22,0l2.94.8c-.49,1.06-.72,2.46-1.54,3.08a3.65,3.65,0,0,1-3.24.39,5.14,5.14,0,0,0-6.07.33,16.47,16.47,0,0,1-4.6,1.84c-1.3.42-2.67.62-4.15,1,1.18,3.51,3,4.72,6.18,4.33.79-.1,1.58-.31,2.37-.42,2.09-.3,3.77.06,5.06,2.09a19.61,19.61,0,0,0,4,4.3c2.36,2,4.63,1,5.21-2s2.31-4.5,4.88-4.15c1.18.17,1.66.58,1.27,1.89-1.08,3.53-2.14,7-6.41,8a4.56,4.56,0,0,0-1.93,1c-2.59,2.31-5,1.56-7.49-.2-3.1-2.17-6.26-4.27-9.52-6.18a5.2,5.2,0,0,0-3.51-.33C68.35,85.27,64,90,63.54,96.8A12.12,12.12,0,0,0,74.1,109.67c1.59.2,3.2.27,4.8.41,3.23.27,4.75,1.54,5.35,4.73a74.75,74.75,0,0,1,1.56,9.7c.29,5.27,3.41,8.47,7.34,11.24,2.08,1.47,4.17,2.91,6.29,4.39-9.63,3.5-29,.31-41-13.87A43.74,43.74,0,0,1,58.68,69.26Z" transform="translate(-3.25 -8.46)"/></svg>